<?xml version="1.0" encoding="utf-8"?>
<!-- Generator: Adobe Illustrator 19.2.1, SVG Export Plug-In . SVG Version: 6.00 Build 0)  -->
<svg version="1.1" id="Capa_1" xmlns="http://www.w3.org/2000/svg" xmlns:xlink="http://www.w3.org/1999/xlink" x="0px" y="0px"
	 viewBox="0 0 191.5 72" style="enable-background:new 0 0 191.5 72;" xml:space="preserve">
<style type="text/css">
	.st0{fill-rule:evenodd;clip-rule:evenodd;fill:#E30613;stroke:#E30613;stroke-width:0.216;stroke-miterlimit:2.6131;}
	.st1{fill-rule:evenodd;clip-rule:evenodd;}
	.st2{fill:none;stroke:#000000;stroke-width:0.216;stroke-miterlimit:2.6131;}
</style>
<g>
	<path d="M67.8,28.3h8.9v13.4c0,1.4,0.6,2,1.7,2c1.1,0,1.7-0.7,1.7-2V28.3h8.9v13.2c0,3.1-1,5.7-3.1,7.8c-2,2.1-4.6,3.2-7.5,3.2
		c-3.4,0-6.1-1.2-8.2-3.7c-1.6-1.9-2.4-4.6-2.4-8V28.3L67.8,28.3z"/>
	<path d="M146.9,42.7V52c-0.7,0.1-1.4,0.2-2,0.2c-3.6,0-6.6-1.2-9-3.5c-2.4-2.4-3.6-5.3-3.6-8.9c0-3.5,1.2-6.4,3.6-8.8
		c2.4-2.4,5.4-3.6,8.8-3.6c3.9,0,6.9,1.1,9.1,3.4c2.2,2.3,3.3,5.3,3.3,9.2v11.7h-8.9V40.6c0-1.3-0.3-2.3-0.9-3
		c-0.6-0.8-1.4-1.1-2.5-1.1c-0.9,0-1.8,0.3-2.4,1c-0.7,0.7-1,1.5-1,2.4c0,1,0.3,1.8,0.9,2.4c0.6,0.6,1.4,1,2.4,1
		C145.5,43.3,146.3,43.1,146.9,42.7L146.9,42.7z"/>
	<polygon class="st0" points="132.5,37 119.9,37 119.9,40.6 132.5,40.6 132.5,37 	"/>
	<path class="st0" d="M145.3,37h-12.8v3.6c5.4,0,10.5,0,15.9,0C148.2,38.4,147.8,36.7,145.3,37L145.3,37z"/>
	<polygon class="st0" points="185.8,37 156.9,37 157.3,40.4 185.8,40.4 185.8,37 	"/>
	<path d="M175.2,33l-3.7,4c-0.3-1.2-1.8-1.8-2.1-1.8c-0.5,0-0.9,0.2-1.3,0.6c-0.4,0.4-0.5,0.8-0.5,1.4c0,0.5,0.2,1,0.6,1.7l0.5,0.9
		c0.9,1.6,1.4,3.2,1.4,4.7c0,2.2-0.8,4-2.3,5.6c-1.6,1.5-3.5,2.3-5.7,2.3c-1.1,0-2.8-0.7-3.9-1.2v-6.5c0.6,0.4,1.9,1.1,2.4,1.1
		c0.6,0,1.1-0.2,1.5-0.5c0.4-0.3,0.6-0.8,0.6-1.3c0-0.3-0.3-1-0.9-2.2c-1-1.8-1.5-3.5-1.5-5.3c0-2.1,0.8-4,2.3-5.5
		c1.5-1.5,3.3-2.3,5.4-2.3C168.8,28.5,173.6,29.2,175.2,33L175.2,33z"/>
	<polygon class="st1" points="90,41.4 99.4,41.4 99.4,66.5 90,66.5 90,41.4 	"/>
	<path class="st1" d="M94.7,27.4c2.6,0,4.6,2.1,4.6,4.6c0,2.6-2.1,4.6-4.6,4.6c-2.6,0-4.6-2.1-4.6-4.6
		C90.1,29.5,92.2,27.4,94.7,27.4L94.7,27.4z"/>
	<polygon class="st0" points="182.4,37 185.8,37 185.8,6 182.4,6 182.4,37 	"/>
	<path d="M132.5,51.9h-8.8V39.3c0-1-0.1-1.7-0.3-2c-0.2-0.4-0.6-0.6-1.1-0.6c-1,0-1.5,0.9-1.5,2.6v12.6H112V39.3c0-1-0.1-1.7-0.3-2
		c-0.2-0.4-0.6-0.6-1.1-0.6c-1,0-1.5,0.9-1.5,2.6v12.6h-8.8V37.5c0-2.6,0.9-4.9,2.7-6.7c1.8-1.8,3.9-2.8,6.5-2.8
		c2.6,0,4.9,1.1,7,3.3c2.3-2.2,4.6-3.3,6.9-3.3c2.9,0,5.3,1.1,7.1,3.2c1.4,1.7,2.1,4.1,2.1,7.3V51.9L132.5,51.9z"/>
	<path class="st0" d="M88.9,37h22.4c0.4,0.3,0.6,0.9,0.7,1.5l0,2H88.9V37L88.9,37z"/>
	<polygon class="st0" points="5.8,37 76.8,37 76.8,40.4 5.8,40.4 5.8,37 	"/>
	<polygon class="st0" points="5.8,37 9.2,37 9.2,5.9 5.8,5.9 5.8,37 	"/>
	<path class="st2" d="M126.7,40.4h-2.9c0-1.5-0.1-3,1-3.5l1.1,0C126.9,37.4,126.7,39.3,126.7,40.4L126.7,40.4z"/>
	<polygon class="st0" points="76.7,37 80,37 80,40.4 76.7,40.4 76.7,37 	"/>
	<path d="M58.7,57.5V40.3c0-2.8-1-4.2-3.1-4.2c-0.8,0-1.6,0.3-2.2,0.9c-0.6,0.6-0.9,1.3-0.9,2.1c0,0.8,0.3,1.6,0.9,2.2
		c0.6,0.6,1.3,0.9,2.1,0.9c0.6,0,1.3-0.3,1.9-0.8V50c-0.9,0.1-1.6,0.2-2.1,0.2c-2.9,0-5.5-1.1-7.6-3.3c-2.1-2.2-3.2-4.8-3.2-7.7
		c0-3.1,1.1-5.7,3.2-7.8c2.2-2.1,4.8-3.2,7.9-3.2c1.6,0,3.1,0.3,4.6,1c1.5,0.7,2.7,1.6,3.7,2.8c1.7,2,2.5,4.7,2.5,7.9v17.6H58.7
		L58.7,57.5z"/>
	<polygon class="st0" points="44.2,37 56.6,37 56.6,40.4 44.2,40.4 44.2,37 	"/>
	<path d="M44.5,42.3c-3.3,0.1-14.6,2.4-14.8-1.5c0-0.8,0.1-1.6,0.4-2.4l4.8-0.1c-0.4-1.8-1.5-2.7-3.3-2.6c-1.2,0-2.1,0.6-2.8,1.5
		c-0.7,1-1,2.3-1,3.8c0,1.6,0.4,2.9,1.2,3.8c0.7,1,1.7,1.4,2.9,1.4c1,0,1.8-0.5,2.7-1.5l5.6,6.1c-2.5,2-5.2,3-8.3,3.1
		c-3.7,0.1-6.9-1-9.6-3.4c-2.6-2.4-4-5.3-4.1-8.9c-0.1-3.6,1.1-6.6,3.6-9.2c2.5-2.5,5.6-3.9,9.4-4c3.7-0.1,6.8,1,9.4,3.3
		c2.6,2.3,3.9,5.3,4,8.8C44.5,41,44.5,41.6,44.5,42.3L44.5,42.3z"/>
	<polygon class="st0" points="16.8,37 29.3,37 29.3,40.4 16.8,40.4 16.8,37 	"/>
</g>
</svg>
